<?xml version="1.0" encoding="utf-8"?>
<!-- Generator: Adobe Illustrator 28.0.0, SVG Export Plug-In . SVG Version: 6.00 Build 0)  -->
<svg version="1.1" id="Layer_1" xmlns="http://www.w3.org/2000/svg" xmlns:xlink="http://www.w3.org/1999/xlink" x="0px" y="0px"
	 viewBox="0 0 100 100" style="enable-background:new 0 0 100 100;" xml:space="preserve">
<style type="text/css">
	.st0{fill:#FFFFFF;}
	.st1{fill:#808080;}
</style>
<g>
	<circle cx="49.72" cy="50.07" r="48.5"/>
	<path d="M49.72,2.07c26.47,0,48,21.53,48,48s-21.53,48-48,48s-48-21.53-48-48S23.25,2.07,49.72,2.07 M49.72,1.07
		c-27.06,0-49,21.94-49,49s21.94,49,49,49s49-21.94,49-49S76.78,1.07,49.72,1.07L49.72,1.07z"/>
</g>
<rect x="28.94" y="25.02" transform="matrix(0.9553 -0.2958 0.2958 0.9553 -14.6331 11.8286)" class="st0" width="5.68" height="58.52"/>
<rect x="39.53" y="51.09" transform="matrix(0.282 -0.9594 0.9594 0.282 -2.5917 104.0741)" class="st0" width="57.41" height="5.36"/>
<rect x="18.47" y="52.23" transform="matrix(0.282 -0.9594 0.9594 0.282 -18.0285 85.712)" class="st1" width="59.57" height="5.35"/>
<rect x="50.58" y="25.12" transform="matrix(0.9553 -0.2958 0.2958 0.9553 -13.8569 18.2092)" class="st1" width="5.35" height="59.57"/>
</svg>
